PathFileType	4	(X/Y/Z)	C:/Users/beibeiliu/ov580/test_trc\sequence.42_training_dense_right.trc
DataRate	CameraRate	NumFrames	NumMarkers	Units	OrigDataRate	OrigDataStartFrame	OrigNumFrames
120	120	22	19	mm	120	1	81
Frame#	Time	ThumbCMC			ThumbMCP			ThumbIP			ThumbTip			IndexMCP			IndexPIP			IndexTip			MiddleMCP			MiddlePIP			MiddleTip			RingMCP			RingPIP			RingTip			PinkyMCP			PinkyPIP			PinkyTip			BackHand1			BackHand2			BackHand3	
		X0	Y0	Z0	X1	Y1	Z1	X2	Y2	Z2	X3	Y3	Z3	X4	Y4	Z4	X5	Y5	Z5	X6	Y6	Z6	X7	Y7	Z7	X8	Y8	Z8	X9	Y9	Z9	X10	Y10	Z10	X11	Y11	Z11	X12	Y12	Z12	X13	Y13	Z13	X14	Y14	Z14	X15	Y15	Z15	X16	Y16	Z16	X17	Y17	Z17	X18	Y18	Z18	
0	0	3.47297	49.0403	73.0621	-19.4987	37.18	53.8885	-28.215	32.1425	31.3704	-33.5325	26.5649	12.4018	-2.19878	63.743	6.43129	-9.50594	53.4291	-18.83	-18.3505	42.0639	-34.3642	21.0794	62.1203	-3.48349	12.7088	54.3155	-27.6813	10.5814	36.1332	-49.9011	37.9868	55.6248	-0.961106	34.4258	48.3426	-24.5348	31.6281	36.1386	-44.6549	56.2284	47.8572	8.00047	58.7648	42.1429	-11.056	60.6954	36.2196	-27.7681	44.7096	65.0736	44.1162	48.6667	67.8015	71.499	22.0432	70.7404	62.7071	
1	0.00833333	0.148757	49.8093	68.5808	-15.6743	37.5936	54.3315	-27.1172	33.1116	29.7498	-36.9183	25.5418	14.7829	-2.58173	63.0221	6.52631	-12.0985	55.1081	-18.479	-15.6405	39.4095	-37.3552	17.122	62.3474	-1.88396	10.6344	52.4195	-30.8739	8.75557	35.2449	-51.3391	34.9608	55.9366	-2.95803	38.7132	47.9212	-22.2908	29.8075	36.4616	-43.9314	55.0809	47.429	8.88258	58.4836	41.6962	-12.231	55.3495	35.2302	-30.7321	43.935	64.2228	44.114	48.3372	66.4528	70.775	20.5426	71.9916	59.7074	
2	0.0166667	-0.320957	49.3402	73.6968	-15.8587	38.0478	51.5515	-28.703	33.0476	30.5533	-34.4255	27.4211	13.1038	-2.25659	63.3091	5.82342	-12.1274	56.993	-15.2301	-14.7281	41.8949	-35.3518	16.2443	61.9171	-7.05507	10.2959	52.9797	-30.5815	8.4365	34.1847	-52.1709	37.8674	55.2082	-1.98845	34.5832	48.6008	-21.6957	30.565	36.2137	-42.6617	55.223	48.3544	7.2893	58.2045	41.2171	-9.56886	56.455	36.5302	-27.3246	44.5598	64.3752	42.706	50.7826	67.1736	67.3483	22.8642	72.2415	60.5447	
3	0.025	-2.28144	49.7198	70.6757	-18.5503	37.4347	54.0975	-28.5648	33.3232	28.7575	-36.8764	26.0238	11.8335	-4.31357	63.7039	7.68942	-12.9624	54.5016	-19.1348	-14.2775	40.3538	-36.9939	20.2152	61.1954	-5.822	13.6044	51.1348	-32.1504	10.7321	34.1172	-50.9544	35.8559	55.8003	-3.71534	34.7066	46.9853	-26.069	28.5825	35.3699	-43.0925	54.6502	47.588	8.43587	56.6334	41.5833	-7.90706	56.5236	33.7097	-31.0023	41.6755	65.9771	43.0349	49.2598	64.6171	69.9514	18.1231	71.6563	57.4954	
4	0.0333333	-4.36903	49.6113	69.9434	-18.2826	36.6662	53.1774	-29.4897	31.949	30.4957	-36.148	24.7112	11.1547	-4.30202	62.6907	4.02318	-13.5467	56.0125	-16.5871	-14.7277	39.6225	-35.9009	15.1661	61.5125	-1.58243	10.4611	50.2761	-31.1354	7.16702	36.0316	-49.8328	34.6625	54.05	1.56425	30.6143	46.29	-25.7224	27.5282	35.0992	-44.7477	55.0619	45.8309	11.1926	55.7971	40.3597	-12.3799	55.3155	32.3194	-30.5454	41.8023	63.962	46.1608	51.238	65.5912	69.5135	23.0459	69.8056	60.3405	
5	0.0416667	-4.30443	48.4508	68.5548	-16.7571	35.9258	52.0845	-27.1136	30.0907	34.0252	-35.091	23.8829	14.1987	-7.49038	61.4211	6.00271	-10.281	53.1122	-19.1597	-21.63	37.6209	-37.5406	17.1571	59.9704	-2.39387	13.3951	51.2093	-28.9966	6.98646	36.0246	-48.5667	32.991	53.7036	-1.95489	34.3155	46.4267	-23.3921	26.5472	35.9271	-40.659	55.9867	45.0542	7.701	54.3423	41.4327	-8.82224	57.298	32.6131	-32.1058	44.726	62.2475	42.4464	47.2157	64.508	67.1183	21.2656	69.4995	56.3549	
6	0.05	-1.48696	47.3221	68.6551	-19.9478	35.3858	53.6218	-31.7439	29.5266	31.5826	-38.247	21.5334	14.369	-5.68563	60.5079	5.12874	-14.9403	52.5781	-18.8314	-15.5527	37.3203	-37.5511	14.9269	60.2227	-3.46419	11.633	50.7023	-28.8926	7.78425	33.4053	-49.9977	37.8555	52.9455	-2.40908	36.042	45.2355	-23.7975	30.7868	34.5291	-41.5686	54.0271	45.1592	10.3674	58.4149	37.834	-10.8176	57.6405	30.8336	-32.0104	42.337	63.367	45.7855	45.6862	64.1098	69.6772	19.5017	68.6823	57.2056	
7	0.0583333	-0.642593	46.2684	73.0809	-18.2701	35.0269	53.2917	-28.948	29.1415	32.5303	-36.7635	22.1066	12.5511	-6.26135	60.3307	4.94283	-10.7189	49.6821	-20.3734	-17.1269	35.5087	-39.3349	18.1643	57.9677	-5.45619	12.975	48.5397	-30.1135	10.9618	28.6738	-52.9619	39.6336	50.808	-3.07786	37.9655	43.123	-25.01	29.2073	34.3182	-41.2639	56.0386	44.4202	11.6273	57.4184	39.0655	-7.59512	60.5887	31.6792	-29.707	42.6158	63.9585	41.5951	48.3597	64.0984	71.2962	19.4732	68.9705	60.5423	
8	0.0666667	2.2949	45.9285	67.8109	-17.0396	33.7918	53.7586	-25.5942	28.5484	34.1526	-35.1876	20.8683	15.0679	-3.60107	57.953	3.57518	-11.0238	50.2025	-18.9753	-14.22	37.1517	-35.901	19.9726	57.3429	-4.33083	14.3544	45.7651	-31.8743	10.6446	31.9622	-48.2473	37.8512	51.5316	1.07952	36.1313	43.5506	-21.7704	31.2018	31.4227	-43.93	58.4385	43.3591	9.72456	57.2228	37.2947	-10.1164	62.5133	29.5948	-26.4418	48.0666	62.3859	42.2822	51.9007	62.641	67.4861	24.0086	66.5879	60.4704	
9	0.075	1.03677	45.3317	72.948	-16.8242	32.6881	52.798	-26.5279	28.2542	33.8473	-35.0982	21.8009	12.7478	-1.08522	57.8952	3.20171	-11.3118	50.728	-15.4715	-14.9441	34.3883	-37.5592	16.693	57.653	-6.54073	14.2858	46.1389	-31.723	9.97346	32.8062	-49.7228	39.2507	51.0213	0.688369	35.6658	43.7333	-21.7987	30.7658	32.4675	-42.3089	60.8967	42.4733	9.42829	59.1969	37.5597	-9.86574	58.9194	32.6446	-28.8796	43.5868	59.6763	45.4745	51.6936	61.2345	66.296	26.3722	67.3653	60.7923	
10	0.0833333	3.83771	48.9839	66.804	-18.6257	37.4871	48.6452	-29.0164	31.0857	29.6768	-33.8087	25.3546	8.8553	-1.43493	63.1688	4.91048	-10.7616	54.6752	-21.768	-10.4848	43.1055	-39.8205	20.6338	60.9859	-8.24779	19.2129	53.7537	-31.7269	13.9538	38.3628	-53.2182	41.2676	54.4822	-5.57389	38.0209	48.1634	-25.5977	32.5162	37.6102	-45.1571	61.9293	44.8722	6.60361	59.5901	41.1797	-12.4887	60.1615	35.1368	-34.6921	45.2438	62.8785	44.6635	52.2967	65.0648	68.2109	26.1429	67.7779	58.8976	
11	0.0916667	5.58982	54.2109	60.9274	-11.1027	44.9598	40.1319	-26.6189	39.9532	17.1446	-35.2595	33.3064	-1.70993	1.04252	72.5921	-6.86771	-3.18831	67.2373	-32.0442	-8.18124	54.9129	-52.7114	23.0715	71.303	-14.0498	22.397	65.2101	-42.911	16.0239	53.0818	-64.8717	44.6588	63.273	-14.1479	43.1587	56.5276	-35.2982	35.0533	46.0352	-56.7545	60.8561	53.4303	-6.60914	64.1288	46.9318	-25.3355	64.9749	40.0902	-42.7839	49.9758	69.7013	29.8859	54.447	69.4803	57.3891	24.8989	75.276	46.266	
12	0.1	7.88228	59.6852	40.2977	-8.1541	49.4058	20.8076	-21.6232	43.9949	4.05436	-32.774	38.8344	-14.296	8.00819	82.0471	-27.861	5.57147	77.9221	-51.5269	-2.02264	70.311	-69.6243	29.87	79.3971	-37.731	31.6037	72.4198	-64.2742	27.0865	62.7586	-85.3487	50.028	68.7627	-34.2288	50.729	61.5611	-58.1457	40.7243	54.1397	-76.618	69.3608	56.1892	-25.4223	67.9588	50.8135	-43.4935	66.9518	43.5827	-62.351	54.8061	75.1428	12.6102	59.5128	71.4937	37.3929	32.3471	80.8762	30.56	
13	0.108333	16.5895	55.3068	9.05933	-4.27436	43.8139	-6.24864	-16.9892	40.0027	-23.3268	-30.5002	33.5628	-36.4885	19.9897	75.603	-52.5203	16.1087	75.788	-78.5144	8.50606	68.5864	-102.968	42.9501	72.2346	-60.4003	40.7278	70.2358	-87.4187	36.6499	59.267	-115.179	59.6583	61.1949	-61.7673	52.9039	57.6218	-81.8461	51.0881	49.0943	-100.546	76.2004	47.5245	-48.1942	74.7164	40.689	-70.867	71.3805	36.789	-86.1229	61.1097	66.7315	-11.4048	65.6568	65.7118	9.49231	38.2344	75.702	3.20301	
14	0.116667	19.3397	45.0726	-20.4121	-1.70994	32.7263	-32.3808	-13.9885	28.119	-50.5848	-29.8974	22.2655	-68.08	25.4508	65.4546	-85.5418	24.2433	62.3364	-110.567	17.0472	57.9388	-130.311	45.8891	59.0916	-91.3156	49.2817	55.5411	-115.938	44.1793	45.3507	-143.081	66.7236	45.7489	-88.3827	62.5144	41.2384	-113.882	55.8602	32.6794	-133.018	79.6648	32.3404	-75.9782	83.0419	25.5576	-94.8624	77.962	18.1834	-116.739	69.8948	52.0686	-42.2979	69.6557	54.3697	-17.0771	44.3588	62.5812	-30.8598	
15	0.125	20.8495	37.4846	-46.045	3.98293	22.2066	-59.2425	-11.0125	16.3955	-74.4864	-23.124	9.23738	-89.2974	30.7489	54.8528	-109.74	27.5627	51.7735	-135.894	22.2993	45.8152	-156.102	53.4812	47.4257	-117.782	51.732	43.5138	-144.251	50.065	33.5964	-165.955	68.1743	36.1804	-112.492	72.6493	29.1541	-133.067	65.5514	19.0779	-155.007	85.2772	20.1656	-99.0765	86.9787	12.1224	-117.221	83.8068	4.67374	-137.086	75.7948	42.3889	-64.9125	77.0203	44.6301	-43.2594	49.3419	52.9966	-52.3708	
16	0.133333	26.8736	29.1813	-61.9403	7.03195	12.1328	-76.8997	-2.82806	3.04772	-96.4807	-14.3537	-7.75856	-110.481	33.6604	48.4942	-126.404	29.1824	45.1848	-150.826	28.2541	32.0415	-173.6	57.0979	43.9459	-129.129	58.1312	39.2071	-156.892	60.9226	23.3917	-179.061	73.4409	31.6139	-122.322	75.5017	23.6014	-150.189	70.0424	11.2796	-169.631	91.3442	16.7952	-110.259	91.6654	5.92316	-133.135	89.8839	-4.42809	-150.713	76.4274	40.2786	-78.7273	78.5323	42.1625	-54.0522	51.8567	47.8158	-67.0237	
17	0.141667	29.418	14.5539	-67.3586	21.0869	-7.62717	-85.4911	10.807	-19.8726	-98.9935	5.99728	-31.4523	-114.978	37.6808	34.196	-130.854	34.3743	27.7279	-155.586	32.5069	11.2008	-172.923	63.1077	34.5802	-135.419	64.9002	27.2007	-163.276	63.4045	9.39735	-182.694	77.6542	27.236	-128.977	83.556	15.4107	-154.763	76.5941	1.35803	-168.611	97.5033	14.5886	-117.92	101.574	1.39822	-135.983	103.46	-11.9378	-149.767	80.0844	35.7549	-82.5209	79.7501	37.9336	-55.5462	50.0288	38.5652	-70.8031	
18	0.15	38.5179	0.914561	-57.9218	35.5443	-22.2785	-80.4372	29.7132	-36.6409	-94.4532	28.3234	-49.8967	-113.797	41.9986	19.1947	-123	41.7561	11.0881	-147.866	45.5567	-12.4528	-165.56	67.3891	25.2084	-131.205	73.7044	16.8031	-154.363	78.1027	-9.62719	-172.211	90.5212	19.4577	-119.849	90.9378	9.50869	-145.473	87.0705	-14.121	-158.533	106.885	10.1669	-108.787	110.204	-5.659	-130.294	109.906	-21.5748	-138.427	83.1351	28.9804	-78.6275	83.5015	29.3388	-52.3159	59.8103	29.8256	-66.2712	
19	0.158333	46.6731	2.90176	-51.1886	43.5211	-19.9718	-71.212	39.1021	-33.5662	-84.9169	37.521	-49.0727	-104.073	55.3736	14.9441	-111.878	52.5023	2.74294	-137.842	49.5592	-20.5146	-148.279	84.4603	15.6322	-120.677	83.9115	1.22125	-144.586	81.153	-27.3333	-155.325	100.074	8.4601	-113.639	96.2316	-6.53728	-134.363	89.5861	-32.731	-140.205	113.214	-1.84204	-96.255	115.168	-18.6216	-114.477	102.893	-38.8416	-123.98	94.9117	23.0458	-69.7387	96.7551	26.027	-44.2476	72.4564	28.2039	-54.5394	
20	0.166667	54.5334	15.0809	-38.2104	39.333	-3.54405	-52.7776	28.358	-17.881	-71.5837	32.9452	-32.321	-88.8026	70.89	17.7409	-99.8006	59.8825	6.42155	-122.549	49.3888	-16.949	-129.252	89.7784	11.3636	-101.414	88.0089	-4.81359	-126.436	69.4458	-33.0574	-134.116	103.326	-2.5496	-95.9225	94.0622	-19.562	-115.793	82.9179	-39.6284	-117.97	115.399	-19.5374	-78.9901	108.092	-34.5886	-93.1276	89.8373	-50.5573	-99.2515	109.352	13.4775	-47.5338	108.192	19.0111	-24.188	81.1815	30.6435	-44.8891	
21	0.175	56.846	31.8269	-19.7092	36.5168	16.8808	-36.9114	20.4556	9.32904	-53.4855	15.2922	-5.81615	-66.5509	73.5926	22.9766	-83.5866	61.9758	16.2494	-102.597	37.9507	-4.75071	-108.352	89.4943	5.65754	-83.3129	75.0543	-6.93077	-107.196	52.4117	-26.1051	-110.501	96.655	-13.5035	-74.5993	83.3407	-23.9855	-91.0307	60.6667	-36.6717	-95.4866	97.5082	-31.0584	-58.4449	83.0033	-40.2569	-71.1729	61.7636	-46.38	-76.9982	103.816	8.39185	-26.9841	105.485	11.0772	-3.49904	92.3741	29.2608	-21.4539	
